<svg id="LOGO_V2_Red" xmlns="http://www.w3.org/2000/svg" width="273.08mm" height="98.62mm" viewBox="0 0 774.08 279.57">
  <defs>
    <style>
      .cls-1 {
        fill: #ef513e;
      }
    </style>
  </defs>
  <path class="cls-1" d="M368.12,332.34V239.8a14.71,14.71,0,0,1,13.32-14.65A130.08,130.08,0,0,0,266.7,156.42H164A130.1,130.1,0,0,0,33.9,286.52h0c.64,13.49.5,62.47,38.11,92,2.45,1.93,7.87,6.05,10.48,13.46,6.68,19-13,38-8,43.12,3.68,3.75,16-5.16,32.71-11.38,16.33-6.09,29.47-6.85,55.44-7.32,62.35-1.14,88.77.23,104.1.23A130.09,130.09,0,0,0,381.91,347,14.7,14.7,0,0,1,368.12,332.34ZM168.67,303.17a14.72,14.72,0,0,1-29.43,0V269a14.72,14.72,0,0,1,29.43,0Zm57.19,53.71a14.71,14.71,0,0,1-29.42,0V215.26a14.71,14.71,0,0,1,29.42,0Zm57.21-24.54a14.71,14.71,0,1,1-29.42,0V239.8a14.71,14.71,0,1,1,29.42,0Zm57.25,24.54a14.71,14.71,0,1,1-29.42,0V215.26a14.71,14.71,0,1,1,29.42,0Z" transform="translate(-33.9 -156.42)"/>
  <path class="cls-1" d="M412.25,317.88a14.72,14.72,0,0,1-14.71-14.71V269A14.71,14.71,0,0,1,427,269v34.21A14.71,14.71,0,0,1,412.25,317.88Z" transform="translate(-33.9 -156.42)"/>
  <g>
    <path class="cls-1" d="M456.4,278.65V237.34c0-2.44,1.33-3.76,3.77-3.76h5.3a3.41,3.41,0,0,1,3.77,3.76v34.12h18.21c2.45,0,3.77,1.33,3.77,3.77v3.42c0,2.44-1.32,3.77-3.77,3.77H460.17C457.73,282.42,456.4,281.09,456.4,278.65Z" transform="translate(-33.9 -156.42)"/>
    <path class="cls-1" d="M494.5,278.09l16-41.58a4.32,4.32,0,0,1,4.4-2.93h5.44a4.24,4.24,0,0,1,4.33,2.93L541,278.09c1,2.58-.14,4.33-2.93,4.33h-5.65a4.31,4.31,0,0,1-4.33-2.93l-2.16-5.72H509.16l-2.1,5.65a4.09,4.09,0,0,1-4.25,3h-5.38C494.64,282.42,493.46,280.67,494.5,278.09Zm29-14.37L517.6,247l-6.21,16.75Z" transform="translate(-33.9 -156.42)"/>
    <path class="cls-1" d="M547.88,278.65V237.34c0-2.44,1.33-3.76,3.77-3.76H557a3.42,3.42,0,0,1,3.77,3.76v16.47h16.33V237.34c0-2.44,1.32-3.76,3.77-3.76h5.23c2.44,0,3.77,1.32,3.77,3.76v41.31c0,2.44-1.33,3.77-3.77,3.77h-5.23c-2.45,0-3.77-1.33-3.77-3.77V264.28H560.72v14.37a3.42,3.42,0,0,1-3.77,3.77h-5.3C549.21,282.42,547.88,281.09,547.88,278.65Z" transform="translate(-33.9 -156.42)"/>
    <path class="cls-1" d="M596.31,266.16a16.51,16.51,0,0,1,1.53-6.7c.91-1.88,2.37-2.51,4.4-2.51h4c2.79,0,3.7,1.26,2.93,3.63a12.88,12.88,0,0,0-.69,3.84c0,3.69,1.81,7.67,6.9,7.67,4.89,0,7.61-3.56,7.61-10.95v-23.8c0-2.44,1.33-3.76,3.77-3.76h5.3c2.44,0,3.77,1.32,3.77,3.76v23.8c0,15-7.47,22.05-20.17,22.05C600.77,283.19,596.31,273.49,596.31,266.16Z" transform="translate(-33.9 -156.42)"/>
    <path class="cls-1" d="M642.78,258c0-13.68,10.25-25.19,26.09-25.19S695,244.32,695,258s-10.26,25.19-26.17,25.19S642.78,271.67,642.78,258Zm39.35,0c0-7.75-5.16-14.1-13.26-14.1s-13.25,6.35-13.25,14.1,5.23,14.09,13.25,14.09S682.13,265.74,682.13,258Z" transform="translate(-33.9 -156.42)"/>
    <path class="cls-1" d="M702.44,278.65V237.34c0-2.44,1.32-3.76,3.76-3.76h5.31a3.41,3.41,0,0,1,3.76,3.76v41.31a3.42,3.42,0,0,1-3.76,3.77H706.2C703.76,282.42,702.44,281.09,702.44,278.65Z" transform="translate(-33.9 -156.42)"/>
    <path class="cls-1" d="M762.23,237.34v3.42c0,2.44-1.32,3.77-3.76,3.77H748.21v34.12c0,2.44-1.33,3.77-3.77,3.77h-5c-2.44,0-3.77-1.33-3.77-3.77V244.53h-10c-2.44,0-3.77-1.33-3.77-3.77v-3.42c0-2.44,1.33-3.76,3.77-3.76h32.8C760.91,233.58,762.23,234.9,762.23,237.34Z" transform="translate(-33.9 -156.42)"/>
    <path class="cls-1" d="M759,278.09l16-41.58a4.33,4.33,0,0,1,4.4-2.93h5.44a4.24,4.24,0,0,1,4.33,2.93l16.33,41.58c1,2.58-.14,4.33-2.94,4.33h-5.65a4.29,4.29,0,0,1-4.32-2.93l-2.17-5.72H773.61l-2.1,5.65a4.08,4.08,0,0,1-4.25,3h-5.37C759.09,282.42,757.91,280.67,759,278.09Zm29-14.37L782.05,247l-6.21,16.75Z" transform="translate(-33.9 -156.42)"/>
  </g>
  <g>
    <path class="cls-1" d="M500.5,308.4c0,10.13-6.62,18.07-18.7,18.07H470.74v13.4c0,2.73-1.56,4.21-4.21,4.21h-5.92c-2.73,0-4.21-1.48-4.21-4.21V293.75c0-2.73,1.48-4.21,4.21-4.21H481.8C494,289.54,500.5,298.27,500.5,308.4Zm-14.41.08c0-3.67-2.42-6.7-6-6.7h-9.35V315.1h9.35C483.67,315.1,486.09,312,486.09,308.48Z" transform="translate(-33.9 -156.42)"/>
    <path class="cls-1" d="M507.43,323.2V293.75c0-2.73,1.48-4.21,4.21-4.21h5.92c2.73,0,4.21,1.48,4.21,4.21V323.2c0,6.15,4,9.35,8.72,9.35s8.8-3.2,8.8-9.35V293.75c0-2.73,1.49-4.21,4.21-4.21h5.84c2.73,0,4.21,1.48,4.21,4.21V323.2c0,14.1-10.59,21.74-23.06,21.74S507.43,337.3,507.43,323.2Z" transform="translate(-33.9 -156.42)"/>
    <path class="cls-1" d="M564.3,339.87V293.75c0-2.73,1.48-4.21,4.21-4.21h5.92c2.65,0,4.21,1.48,4.21,4.21v18.39h18.23V293.75c0-2.73,1.48-4.21,4.2-4.21h5.85c2.72,0,4.2,1.48,4.2,4.21v46.12c0,2.73-1.48,4.21-4.2,4.21h-5.85c-2.72,0-4.2-1.48-4.2-4.21V323.82H578.64v16.05c0,2.73-1.56,4.21-4.21,4.21h-5.92C565.78,344.08,564.3,342.6,564.3,339.87Z" transform="translate(-33.9 -156.42)"/>
    <path class="cls-1" d="M636.75,301.78v9.73H653c2.72,0,4.28,1.48,4.28,4.21v2.57c0,2.73-1.56,4.21-4.28,4.21H636.75v9.35h19.32c2.73,0,4.21,1.48,4.21,4.2v3.82c0,2.73-1.48,4.21-4.21,4.21H626.62c-2.72,0-4.2-1.48-4.2-4.21V293.75c0-2.73,1.48-4.21,4.2-4.21h29.45c2.73,0,4.21,1.48,4.21,4.21v3.82c0,2.73-1.48,4.21-4.21,4.21Z" transform="translate(-33.9 -156.42)"/>
    <path class="cls-1" d="M711.23,293.75v3.82c0,2.73-1.48,4.21-4.21,4.21H695.57v38.09c0,2.73-1.48,4.21-4.21,4.21h-5.61c-2.72,0-4.2-1.48-4.2-4.21V301.78H670.41c-2.73,0-4.21-1.48-4.21-4.21v-3.82c0-2.73,1.48-4.21,4.21-4.21H707C709.75,289.54,711.23,291,711.23,293.75Z" transform="translate(-33.9 -156.42)"/>
    <path class="cls-1" d="M759.76,293.75v3.82c0,2.73-1.48,4.21-4.2,4.21H744.1v38.09c0,2.73-1.48,4.21-4.2,4.21h-5.61c-2.73,0-4.21-1.48-4.21-4.21V301.78H718.94c-2.73,0-4.21-1.48-4.21-4.21v-3.82c0-2.73,1.48-4.21,4.21-4.21h36.62C758.28,289.54,759.76,291,759.76,293.75Z" transform="translate(-33.9 -156.42)"/>
    <path class="cls-1" d="M755.71,339.25l17.84-46.43a4.83,4.83,0,0,1,4.91-3.28h6.08a4.74,4.74,0,0,1,4.83,3.28l18.23,46.43c1.09,2.88-.16,4.83-3.28,4.83H798a4.81,4.81,0,0,1-4.83-3.27l-2.41-6.39h-18.7l-2.34,6.31a4.56,4.56,0,0,1-4.75,3.35h-6C755.87,344.08,754.54,342.13,755.71,339.25Zm32.41-16.05-6.62-18.7-6.94,18.7Z" transform="translate(-33.9 -156.42)"/>
  </g>
</svg>
