<?xml version="1.0" standalone="no"?>
<!DOCTYPE svg PUBLIC "-//W3C//DTD SVG 20010904//EN"
 "http://www.w3.org/TR/2001/REC-SVG-20010904/DTD/svg10.dtd">
<svg version="1.0" xmlns="http://www.w3.org/2000/svg"
 width="300.000000pt" height="300.000000pt" viewBox="0 0 300.000000 300.000000"
 preserveAspectRatio="xMidYMid meet">
<metadata>
Created by potrace 1.11, written by Peter Selinger 2001-2013
</metadata>
<g transform="translate(0.000000,300.000000) scale(0.100000,-0.100000)"
fill="#000000" stroke="none">
<path d="M30 2145 c0 -2 24 -60 54 -127 30 -68 111 -256 181 -418 71 -162 131
-299 135 -303 5 -5 31 51 60 125 29 73 57 144 63 158 6 14 11 27 11 30 2 8
155 397 186 473 28 67 28 67 7 67 -19 0 -32 -26 -101 -208 -43 -114 -88 -229
-99 -256 l-21 -49 -16 49 c-9 27 -52 142 -96 257 l-79 207 -142 0 c-79 0 -143
-2 -143 -5z"/>
<path d="M950 1328 c0 -7 12 -48 26 -91 22 -67 29 -78 47 -75 16 2 28 20 49
78 28 76 30 100 5 100 -8 0 -22 -23 -32 -56 -9 -30 -20 -53 -23 -49 -3 3 -13
27 -21 53 -10 29 -23 48 -33 50 -10 2 -18 -2 -18 -10z"/>
<path d="M1160 1283 c-12 -32 -26 -68 -31 -81 -5 -13 -9 -27 -9 -32 0 -17 40
-11 48 8 10 23 60 24 68 0 5 -15 44 -27 44 -13 0 3 -12 40 -27 82 -38 114 -60
122 -93 36z m53 -33 c4 -15 0 -20 -13 -20 -13 0 -17 5 -13 20 3 11 9 20 13 20
4 0 10 -9 13 -20z"/>
<path d="M1329 1332 c-1 -4 -2 -44 -3 -89 l-1 -83 62 0 c53 0 61 2 59 18 -2
12 -15 19 -41 22 l-39 5 0 64 c-1 53 -4 65 -18 67 -10 1 -19 -1 -19 -4z"/>
<path d="M1466 1324 c-5 -12 10 -25 39 -36 6 -1 10 -31 10 -64 -1 -57 1 -61
22 -61 20 0 23 4 22 41 -2 86 0 95 21 91 19 -4 22 -1 24 28 1 18 -131 20 -138
1z"/>
<path d="M1657 1333 c-4 -3 -7 -42 -7 -85 0 -63 3 -80 16 -85 9 -3 19 -1 23 5
5 8 6 103 2 160 -1 13 -23 17 -34 5z"/>
<path d="M1783 1321 c-68 -42 -33 -161 47 -161 16 0 41 11 56 24 23 19 28 32
28 65 -1 74 -68 111 -131 72z m81 -42 c21 -30 3 -79 -29 -79 -28 0 -56 35 -48
59 7 20 32 41 49 41 7 0 19 -9 28 -21z"/>
<path d="M1970 1250 c0 -83 1 -90 20 -90 17 0 20 7 20 51 l0 51 33 -48 c19
-27 43 -50 54 -52 18 -3 19 3 20 83 0 47 -4 88 -9 91 -17 11 -34 -16 -33 -51
3 -45 -8 -44 -36 3 -25 40 -37 52 -56 52 -10 0 -13 -25 -13 -90z"/>
<path d="M2843 1123 c-21 -7 -15 -33 7 -33 11 0 20 6 20 14 0 18 -11 25 -27
19z"/>
<path d="M2911 1120 c-16 -9 -6 -30 15 -30 15 0 20 25 6 34 -4 2 -14 1 -21 -4z"/>
<path d="M332 1049 c-44 -26 -61 -56 -58 -100 6 -77 67 -126 139 -110 55 13
87 53 87 111 0 51 -41 108 -79 111 -9 1 -26 3 -38 4 -12 1 -35 -6 -51 -16z"/>
<path d="M942 944 c0 -66 3 -87 15 -91 20 -8 33 16 27 47 -5 23 -2 21 29 -14
20 -23 41 -37 51 -35 15 4 14 10 -12 48 l-30 45 29 43 30 43 -25 0 c-17 0 -31
-10 -46 -35 -12 -19 -24 -35 -26 -35 -2 0 -3 16 -1 35 4 31 2 35 -19 35 -22 0
-22 -3 -22 -86z"/>
<path d="M1127 1023 c-3 -7 -2 -81 2 -155 1 -15 11 -18 60 -18 38 0 60 4 63
13 9 24 -3 32 -42 29 -32 -3 -40 -1 -40 12 0 17 8 19 51 16 21 -1 27 3 25 17
-2 25 -14 32 -47 26 -22 -3 -29 0 -29 11 0 12 10 16 40 16 33 0 40 3 40 20 0
18 -7 20 -59 20 -33 0 -62 -3 -64 -7z"/>
<path d="M1310 939 c0 -81 2 -90 18 -87 11 2 19 15 22 36 3 18 8 33 13 32 4 0
17 0 30 0 20 0 23 -5 23 -32 -1 -27 3 -33 19 -33 18 0 20 7 20 88 0 82 -1 87
-21 87 -18 0 -21 -6 -20 -32 1 -30 -2 -33 -31 -35 -31 -1 -33 1 -33 33 0 27
-4 34 -20 34 -19 0 -20 -7 -20 -91z"/>
<path d="M1517 1023 c-2 -5 -3 -44 -3 -88 1 -73 3 -80 21 -80 18 0 20 7 21 88
1 78 -1 87 -17 87 -10 0 -19 -3 -22 -7z"/>
<path d="M1602 1013 c2 -10 13 -19 26 -21 20 -3 22 -9 22 -68 0 -49 4 -66 15
-71 24 -9 29 2 29 70 1 59 2 62 27 65 21 2 26 7 22 23 -5 16 -14 19 -75 19
-61 0 -69 -2 -66 -17z"/>
<path d="M1780 1021 c0 -4 11 -29 25 -55 14 -26 25 -63 25 -82 0 -27 4 -34 20
-34 16 0 20 7 20 30 0 17 14 57 30 90 29 58 29 60 10 60 -13 0 -28 -12 -38
-30 -21 -37 -27 -37 -42 0 -11 27 -50 44 -50 21z"/>
<path d="M1988 1018 c-39 -32 -22 -81 32 -93 33 -7 41 -35 10 -35 -11 0 -20 5
-20 10 0 6 -9 10 -20 10 -25 0 -27 -36 -2 -48 20 -11 80 -8 92 4 9 10 13 30
11 55 0 10 -18 24 -41 33 -43 17 -53 36 -20 36 11 0 20 -4 20 -10 0 -5 9 -10
20 -10 27 0 25 25 -2 44 -27 19 -59 20 -80 4z"/>
<path d="M2130 1025 c0 -2 12 -25 26 -50 14 -25 27 -62 29 -81 4 -42 7 -46 28
-38 10 3 15 16 13 32 -1 15 11 50 26 79 33 61 34 63 8 63 -13 0 -26 -12 -37
-35 l-17 -36 -18 36 c-12 22 -26 35 -38 35 -11 0 -20 -2 -20 -5z"/>
<path d="M2329 1010 c-1 -11 -2 -50 -2 -87 -1 -63 0 -68 21 -71 19 -3 22 1 22
32 0 33 2 36 30 36 30 0 33 -5 33 -53 0 -13 6 -17 21 -15 20 3 21 9 21 88 -1
77 -3 85 -20 85 -11 0 -21 -7 -21 -15 -1 -8 -2 -23 -3 -32 -1 -13 -10 -18 -31
-18 -28 0 -30 3 -30 35 0 28 -4 35 -20 35 -13 0 -20 -7 -21 -20z"/>
<path d="M2520 1010 c0 -15 7 -20 25 -20 24 0 25 -2 25 -70 0 -63 2 -70 20
-70 18 0 20 7 20 70 0 68 1 70 25 70 18 0 25 5 25 20 0 18 -7 20 -70 20 -63 0
-70 -2 -70 -20z"/>
<path d="M2709 1008 c-3 -60 0 -150 5 -155 3 -3 12 -3 21 0 12 5 15 24 15 92
0 78 -2 85 -20 85 -14 0 -20 -7 -21 -22z"/>
<path d="M2844 1018 c-68 -32 -50 -146 26 -163 83 -18 135 87 74 149 -28 27
-63 32 -100 14z m70 -44 c38 -38 -6 -105 -51 -76 -21 13 -26 58 -8 76 21 20
39 20 59 0z"/>
</g>
</svg>
