<?xml version="1.0" standalone="no"?>
<!DOCTYPE svg PUBLIC "-//W3C//DTD SVG 20010904//EN"
 "http://www.w3.org/TR/2001/REC-SVG-20010904/DTD/svg10.dtd">
<svg version="1.0" xmlns="http://www.w3.org/2000/svg"
 width="520.000000pt" height="520.000000pt" viewBox="0 0 520.000000 520.000000"
 preserveAspectRatio="xMidYMid meet">
<metadata>
Created by potrace 1.11, written by Peter Selinger 2001-2013
</metadata>
<g transform="translate(0.000000,520.000000) scale(0.100000,-0.100000)"
fill="#000000" stroke="none">
<path d="M1503 4424 c-200 -29 -363 -79 -534 -164 -452 -226 -773 -623 -898
-1113 -21 -80 -25 -103 -40 -222 -9 -68 -7 -376 3 -425 3 -14 7 -43 10 -65 15
-134 77 -345 141 -478 76 -162 197 -314 338 -426 60 -47 96 -91 125 -151 23
-47 26 -67 25 -140 -1 -89 -15 -139 -75 -270 -49 -107 -58 -138 -48 -165 16
-42 56 -33 235 50 241 112 371 148 615 170 143 13 576 17 1575 13 198 -1 333
5 375 17 8 2 31 6 50 9 131 20 305 79 450 150 284 141 539 376 699 646 l51 85
-27 6 c-74 15 -125 63 -144 131 -7 27 -10 254 -10 673 l0 633 22 44 c27 53 48
72 105 94 45 17 51 23 35 39 -5 6 -19 28 -31 50 -78 142 -286 372 -437 483
-212 156 -497 278 -743 318 -25 4 -54 9 -65 12 -11 2 -400 6 -865 7 -664 2
-865 0 -937 -11z m933 -583 c47 -21 88 -70 101 -121 6 -20 9 -435 9 -995 -2
-1057 3 -986 -63 -1046 -42 -40 -71 -52 -127 -52 -56 0 -118 26 -151 65 -45
53 -44 43 -45 1057 l0 963 25 47 c51 92 154 126 251 82z m1529 -19 c22 -15 51
-47 63 -70 l24 -43 0 -962 c0 -867 -2 -967 -16 -1002 -44 -104 -182 -146 -281
-85 -19 12 -47 43 -62 68 l-27 46 -1 950 c0 662 3 963 11 993 31 122 185 178
289 105z m-765 -313 c22 -12 52 -41 67 -63 l28 -41 2 -650 c2 -612 1 -652 -16
-690 -63 -139 -253 -151 -339 -22 l-27 41 -2 641 c-2 493 0 650 10 677 42 117
171 167 277 107z m-1514 -372 c45 -23 92 -81 100 -124 4 -21 7 -148 7 -283 0
-226 -2 -249 -21 -292 -36 -82 -134 -128 -219 -103 -61 18 -103 53 -126 104
-18 42 -20 67 -20 311 0 289 1 296 60 352 58 55 151 70 219 35z"/>
<path d="M4884 3140 c-27 -16 -60 -45 -74 -66 l-25 -38 0 -286 0 -287 28 -40
c82 -119 271 -120 353 -1 l29 41 3 263 c2 162 -1 277 -7 301 -22 81 -98 135
-197 139 -51 2 -68 -2 -110 -26z"/>
</g>
</svg>
